<svg version="1.1" id="Layer_1" xmlns="http://www.w3.org/2000/svg" xmlns:xlink="http://www.w3.org/1999/xlink" x="0px" y="0px"
	 width="100%" viewBox="0 0 1254 1254" enable-background="new 0 0 1254 1254" xml:space="preserve">
<path fill="none" opacity="1.000000" stroke="none" 
	d="
M552.000000,1255.000000 
	C368.000000,1255.000000 184.500000,1255.000000 1.000000,1255.000000 
	C1.000000,837.000000 1.000000,419.000000 1.000000,1.000000 
	C419.000000,1.000000 837.000000,1.000000 1255.000000,1.000000 
	C1255.000000,419.000000 1255.000000,837.000000 1255.000000,1255.000000 
	C1020.833313,1255.000000 786.666687,1255.000000 552.000000,1255.000000 
M533.908325,454.911896 
	C533.908325,454.911896 533.633972,454.639832 533.660645,453.871826 
	C535.131042,448.709961 536.601440,443.548126 538.137512,438.155640 
	C524.723938,439.558533 511.983185,440.762451 499.297485,442.394409 
	C497.849762,442.580658 496.710571,445.165253 494.693970,447.481171 
	C497.503632,447.763794 498.629578,447.920471 499.760742,447.983612 
	C506.121552,448.338898 507.683350,450.390259 506.192078,456.621155 
	C505.727783,458.561066 505.123474,460.473663 504.479370,462.363373 
	C496.583282,485.529266 488.666504,508.688110 480.760773,531.850708 
	C480.242523,533.369080 479.771210,534.903503 479.114929,536.935730 
	C487.345093,536.935730 494.993866,536.730713 502.623169,537.027161 
	C506.140869,537.163757 507.558350,535.861511 508.591003,532.665100 
	C513.249634,518.245483 518.116089,503.892395 522.974243,489.537903 
	C526.847290,478.094177 531.895386,467.169983 539.973267,458.103027 
	C542.790527,454.940826 546.908875,452.288513 550.941589,451.020172 
	C556.156860,449.379974 559.331055,452.460632 559.040161,457.946808 
	C558.884338,460.884979 558.099792,463.870117 557.130615,466.672028 
	C549.725769,488.079498 542.205933,509.447205 534.720337,530.826721 
	C534.078613,532.659485 533.425415,534.488220 532.583862,536.866272 
	C540.388977,536.866272 547.543335,536.456726 554.623535,537.004700 
	C559.669678,537.395264 561.395935,535.304626 562.875122,530.917664 
	C568.513000,514.197327 574.394897,497.553284 580.536560,481.011047 
	C584.018921,471.631470 588.227844,462.522034 595.583008,455.355286 
	C600.166809,450.889008 605.696472,449.256073 608.979248,451.612122 
	C613.801025,455.072784 611.786438,459.806427 610.463379,463.932587 
	C607.721130,472.484283 604.384277,480.843109 601.455933,489.337830 
	C598.152954,498.919464 594.235718,508.384399 592.020569,518.223145 
	C588.911316,532.033447 598.960144,540.865479 612.685425,537.298279 
	C627.328735,533.492371 634.338379,521.816650 641.556335,509.806122 
	C639.799988,508.647736 638.456970,507.761963 636.668030,506.582092 
	C635.593750,508.400085 634.796631,509.999268 633.770569,511.434845 
	C631.455139,514.674316 629.320068,518.127747 626.527588,520.907410 
	C624.991333,522.436707 622.271484,522.776978 620.085266,523.653259 
	C619.733337,521.375916 618.932983,519.054626 619.150269,516.833008 
	C619.387695,514.405945 620.503601,512.048279 621.346252,509.699768 
	C625.674683,497.636627 630.281738,485.666168 634.283936,473.496429 
	C636.185852,467.713074 637.767700,461.598206 638.065063,455.563110 
	C638.592834,444.850861 631.414429,437.658936 620.712219,437.033203 
	C610.064331,436.410675 601.164673,440.398254 593.732666,447.801025 
	C590.787537,450.734497 588.153992,453.980743 585.136536,457.355347 
	C585.044556,443.853333 577.273926,436.350983 564.415222,436.938354 
	C557.194763,437.268158 550.670898,439.693237 545.213501,444.407379 
	C541.329956,447.762085 537.843750,451.576874 533.908325,454.911896 
M587.499878,657.460510 
	C590.721985,658.281006 593.944153,659.101501 597.612122,660.060181 
	C597.894775,660.242126 598.052246,660.500366 597.812439,661.570374 
	C597.760132,663.148804 597.325256,664.835205 597.734009,666.283508 
	C598.621704,669.428040 600.918213,672.445557 600.935120,675.524353 
	C601.160034,716.397827 601.142639,757.273010 601.052490,798.147522 
	C601.032471,807.228394 598.042419,810.705994 589.223511,813.300354 
	C588.709473,813.451538 588.372070,814.203247 587.331909,815.059937 
	C587.101318,816.879517 586.870667,818.699036 586.633118,820.573608 
	C613.903870,820.573608 640.347107,820.573608 667.083252,820.573608 
	C667.083252,818.618713 667.083252,816.910339 667.083252,815.255554 
	C653.799622,813.164185 650.669617,809.608398 650.057983,796.209961 
	C649.989624,794.712280 649.979309,793.210999 649.979187,791.711365 
	C649.975708,757.380310 650.029724,723.049194 649.938416,688.718384 
	C649.917603,680.887939 652.330566,674.025879 656.848999,667.768127 
	C663.002747,659.245544 672.290527,655.205322 681.020630,657.283325 
	C689.788696,659.370361 695.151245,665.688721 696.146362,677.259399 
	C697.100525,688.353333 697.090149,699.548035 697.124512,710.699646 
	C697.213379,739.530090 697.267517,768.362976 696.975586,797.191223 
	C696.847534,809.838989 693.855835,812.913635 682.167358,814.898499 
	C681.871826,814.948730 681.613342,815.217224 681.127502,815.511047 
	C681.127502,817.002563 681.127502,818.614075 681.127502,820.462708 
	C708.561523,820.462708 735.786499,820.462708 763.311768,820.462708 
	C763.311768,818.523743 763.311768,816.940186 763.311768,815.193848 
	C761.997742,814.992981 760.871033,814.798767 759.738281,814.651062 
	C749.824585,813.357910 746.457336,810.300354 744.511719,800.467041 
	C744.030762,798.035950 743.885437,795.503967 743.882141,793.017944 
	C743.837891,759.520386 743.892822,726.022644 743.793457,692.525269 
	C743.777649,687.210022 743.433289,681.854797 742.715454,676.589661 
	C739.768799,654.976685 726.255005,640.913574 706.154907,639.060425 
	C687.279968,637.320251 671.090820,643.611389 657.717346,657.014038 
	C655.141296,659.595703 652.887756,662.499268 649.654358,666.207458 
	C649.654358,656.708252 649.654358,648.493896 649.654358,641.256531 
	C630.547119,643.895935 611.783081,646.487915 592.409851,648.562683 
	C589.486267,648.829712 586.562744,649.096741 583.639160,649.363770 
	C583.854675,651.603210 584.070129,653.842712 584.937927,656.373596 
	C585.620300,656.560852 586.302673,656.748169 587.499878,657.460510 
M928.602783,576.522827 
	C928.775085,579.616333 929.096069,582.709717 929.097656,585.803284 
	C929.128418,645.916565 929.158264,706.029968 929.091309,766.143127 
	C929.078369,777.764160 928.634705,789.384460 928.484314,801.006348 
	C928.475891,801.652039 929.335815,802.309021 929.776245,803.680115 
	C928.288330,810.288696 924.469910,814.349304 917.431213,814.555237 
	C912.974365,814.685730 912.665710,816.950989 913.891296,820.496094 
	C940.898804,820.496094 967.770264,820.496094 994.702637,820.496094 
	C994.702637,818.441833 994.702637,816.726562 994.702637,814.838013 
	C987.785889,814.185913 981.042175,813.639771 980.331604,804.548645 
	C979.877991,803.035889 979.424377,801.523132 978.783081,799.532776 
	C978.814819,799.364746 978.846619,799.196655 979.409302,798.481628 
	C979.922058,792.459351 980.902771,786.434143 980.865112,780.415283 
	C980.715393,756.497986 980.223999,732.582886 979.912537,708.666321 
	C979.819336,701.513062 979.962830,694.356567 979.854980,687.203735 
	C979.828674,685.457764 979.239014,683.720276 978.841431,681.202820 
	C981.933777,675.229004 983.943726,668.264343 988.328796,663.473877 
	C999.817261,650.923340 1017.207947,655.764404 1021.463440,672.129272 
	C1022.296143,675.331482 1022.937134,678.693115 1022.946350,681.983154 
	C1023.053223,720.304504 1023.208740,758.627747 1022.924011,796.947205 
	C1022.826538,810.059204 1020.130432,812.549683 1007.489746,814.990845 
	C1007.341553,815.019470 1007.218323,815.177734 1007.000000,815.335938 
	C1007.000000,817.028503 1007.000000,818.778809 1007.000000,820.466736 
	C1034.217529,820.466736 1061.102783,820.466736 1088.226685,820.466736 
	C1088.226685,818.506592 1088.226685,816.893372 1088.226685,815.311768 
	C1074.321899,812.398010 1071.902710,810.223145 1071.604126,799.359863 
	C1071.725830,798.881531 1071.953735,798.403320 1071.953979,797.924927 
	C1071.979736,760.238403 1072.003418,722.551880 1071.926758,684.865540 
	C1071.924194,683.624207 1070.886719,682.384949 1070.058472,680.438965 
	C1069.088013,676.063049 1068.409668,671.597229 1067.094360,667.327637 
	C1062.560181,652.609131 1052.832397,642.865601 1037.674805,639.929871 
	C1015.173401,635.571777 996.873474,643.357727 982.603149,661.055542 
	C981.531433,662.384583 980.483765,663.732910 979.106995,665.474365 
	C979.106995,657.822571 979.106995,650.904114 979.861633,643.748657 
	C980.234985,642.724731 980.932434,641.701477 980.934570,640.676758 
	C980.996216,610.711426 981.009705,580.745972 980.914795,550.780823 
	C980.911011,549.587280 979.772217,548.397217 978.480225,547.054260 
	C957.691895,554.364380 935.955933,557.076721 914.324829,559.754272 
	C914.324829,562.044739 914.324829,563.807800 914.324829,565.660217 
	C921.352295,566.368042 927.405884,568.142700 928.602783,576.522827 
M206.768646,799.336304 
	C206.175934,794.893372 205.093704,790.453125 205.070084,786.007141 
	C204.917755,757.346375 204.994598,728.684265 205.011246,700.022644 
	C205.011719,699.216431 205.180069,698.410339 205.294891,697.382507 
	C211.582153,697.382507 217.728821,697.297607 223.872406,697.398926 
	C239.936020,697.663818 250.581604,705.839661 256.030029,720.564514 
	C258.890320,728.294556 260.611877,736.445984 262.895813,744.578613 
	C266.743805,745.815369 267.804779,744.153809 267.792877,740.145996 
	C267.697876,708.152588 267.781281,676.158569 267.794617,644.164795 
	C267.795074,643.036377 267.634521,641.907837 267.551941,640.818115 
	C263.877838,639.421692 262.696472,640.929749 262.008667,644.228699 
	C260.618195,650.897949 259.359833,657.684814 257.024841,664.048096 
	C252.362823,676.752930 243.604599,685.774536 229.845016,687.777710 
	C221.883774,688.936768 213.615723,687.988342 205.013504,687.988342 
	C205.013504,686.642822 205.014008,685.015991 205.013412,683.389099 
	C205.006683,664.892395 204.971954,646.395569 205.002853,627.898926 
	C205.022888,615.901733 204.964478,603.900330 205.258102,591.908630 
	C205.583557,578.616516 211.436554,572.194214 224.613037,571.238586 
	C231.542572,570.735962 238.610489,571.029541 245.532471,571.757263 
	C261.894775,573.477478 273.971832,582.274597 282.903473,595.737488 
	C289.800934,606.134277 294.322540,617.577576 297.056000,629.684570 
	C298.132690,634.453308 300.143433,635.902954 304.811981,633.442749 
	C303.792267,610.370361 302.771271,587.268738 301.739685,563.926880 
	C240.224991,563.926880 178.997437,563.926880 117.853363,563.926880 
	C116.429512,568.811646 117.626785,571.279236 122.888817,570.826782 
	C125.026802,570.643005 127.223442,570.886902 129.372192,571.126343 
	C139.138550,572.214600 144.463638,577.240112 145.738312,586.986938 
	C146.341278,591.597595 146.538239,596.290405 146.540604,600.946167 
	C146.572433,663.601807 146.570282,726.257446 146.498535,788.913025 
	C146.477737,807.069702 141.199142,812.588928 123.048714,813.991699 
	C117.193336,814.444336 117.012558,814.705322 118.434807,820.611206 
	C157.662079,820.611206 196.881378,820.611206 236.288773,820.611206 
	C236.288773,818.247314 236.288773,816.314209 236.288773,814.214233 
	C231.605408,813.753296 227.139359,813.462341 222.718704,812.845825 
	C214.976501,811.765991 209.472473,807.762756 206.768646,799.336304 
M461.724579,657.227051 
	C429.179871,687.457520 420.545746,743.359985 442.217316,783.528503 
	C457.760162,812.337341 485.620026,826.972107 518.082275,823.681763 
	C547.213745,820.729065 571.344116,796.881775 579.723022,769.255005 
	C578.173828,768.501343 576.585205,767.728516 574.948242,766.932129 
	C572.249878,770.880371 569.916199,774.721436 567.171021,778.241699 
	C550.729492,799.325317 519.179688,802.959229 500.863190,785.447083 
	C496.049042,780.844360 492.104553,774.901428 489.119354,768.898254 
	C480.602295,751.770813 479.638855,733.249023 480.025970,713.889648 
	C513.347778,713.889648 546.043335,713.889648 579.986450,713.889648 
	C578.532654,704.595520 577.828796,695.946411 575.749512,687.641724 
	C570.993286,668.645020 560.615540,653.168335 542.402954,645.134705 
	C513.617493,632.437256 486.588043,636.444824 461.724579,657.227051 
M879.931152,705.673218 
	C895.206543,706.698486 906.648804,696.130981 907.149475,680.347778 
	C907.673889,663.815063 899.744507,651.828186 885.213135,645.324097 
	C856.153442,632.317322 828.239014,636.473511 803.413452,655.612671 
	C780.397644,673.356628 770.420166,698.604858 768.296570,726.991760 
	C766.169128,755.430481 772.675720,781.540527 792.994934,802.500488 
	C811.758606,821.855774 834.929260,829.071777 861.072083,821.361694 
	C887.181702,813.661499 900.623657,793.217224 909.862793,769.000610 
	C907.841675,767.950684 906.248413,767.123047 904.236694,766.078003 
	C903.009827,768.260925 902.118530,770.444824 900.716797,772.227234 
	C896.728943,777.298096 893.231567,783.080322 888.294983,787.021851 
	C869.377319,802.125977 844.055298,796.855408 831.184326,775.630737 
	C821.300232,759.331604 817.966980,741.252563 817.439575,722.562927 
	C816.874817,702.548767 819.151428,682.950439 828.205933,664.711670 
	C831.920166,657.230042 837.230225,651.036316 845.061401,647.624512 
	C853.390503,643.995911 861.714050,644.091309 869.235107,649.622742 
	C874.672607,653.621704 874.803406,659.436768 869.741699,662.767639 
	C860.694763,668.721069 857.511414,677.159363 859.620117,687.378723 
	C861.762451,697.761108 868.620911,703.743835 879.931152,705.673218 
M385.278168,813.628967 
	C374.319641,811.423157 370.567017,807.460693 369.116913,796.454163 
	C368.878021,794.641235 368.766907,792.798218 368.766388,790.969116 
	C368.756409,756.807068 368.667969,722.644409 368.853851,688.483276 
	C368.901855,679.665710 371.520020,671.318726 376.717682,664.116394 
	C380.269379,659.194885 384.862823,655.505737 391.627991,655.917969 
	C389.985291,661.206482 387.993195,665.987000 387.066223,670.965942 
	C385.454590,679.622498 387.711090,687.425171 395.164215,692.613220 
	C403.190063,698.200012 411.949127,698.715210 420.673798,693.985107 
	C430.638550,688.582764 435.682312,677.197266 433.754150,664.959167 
	C431.701752,651.932617 423.158966,642.236450 411.152893,640.018616 
	C395.592438,637.144287 384.080200,644.154114 374.795135,655.855957 
	C372.793243,658.378906 371.262390,661.275574 368.698486,665.272217 
	C368.698486,655.966553 368.698486,648.108765 368.698486,640.516052 
	C345.976807,644.184021 323.735992,647.774353 301.152100,651.420105 
	C301.213470,652.808411 301.291016,654.562622 301.377777,656.525879 
	C303.082184,656.658386 304.377686,656.773254 305.675171,656.857605 
	C314.989838,657.463867 318.803619,660.803955 320.325500,670.055786 
	C320.863892,673.328979 321.152985,676.679199 321.169891,679.996216 
	C321.284515,702.493225 321.328033,724.990723 321.329803,747.488098 
	C321.331085,763.984375 321.564423,780.490479 321.071625,796.973633 
	C320.702545,809.318848 316.783020,813.149109 304.511902,814.460693 
	C299.741821,814.970642 299.448639,817.004761 301.046509,820.463379 
	C332.256134,820.463379 363.186218,820.463379 394.305786,820.463379 
	C394.305786,818.393555 394.305786,816.678772 394.305786,814.756714 
	C391.374573,814.391785 388.749054,814.064880 385.278168,813.628967 
M230.130310,541.870117 
	C279.848145,536.131348 314.515503,485.408356 314.250183,441.900757 
	C314.092438,416.039795 299.048889,395.332001 275.443054,388.527374 
	C261.155884,384.408966 246.744598,384.490356 232.510406,388.555847 
	C193.799713,399.612061 163.914398,435.933105 160.165268,476.125641 
	C157.521561,504.467499 169.903870,526.562988 194.365982,537.423523 
	C205.561401,542.393982 217.318863,542.531250 230.130310,541.870117 
M1153.261963,595.882996 
	C1154.297363,586.111755 1155.679688,576.361694 1156.276123,566.563721 
	C1156.954468,555.424744 1152.802124,546.155396 1142.925903,540.436218 
	C1132.830444,534.590027 1122.413330,534.784302 1112.759277,541.527039 
	C1101.922119,549.096069 1099.847900,560.080017 1101.332397,572.518677 
	C1107.015747,620.137085 1112.487671,667.780762 1118.047241,715.414001 
	C1119.509277,727.940186 1121.002075,740.462830 1122.488281,753.050537 
	C1126.385864,753.050537 1129.807251,753.050537 1134.097534,753.050537 
	C1140.466431,700.835632 1146.812256,648.810059 1153.261963,595.882996 
M396.480255,436.940308 
	C382.210571,437.030243 372.537384,445.744110 362.705536,454.677704 
	C369.568817,431.656219 376.432129,408.634766 383.481537,384.989044 
	C381.571533,385.248535 380.455444,385.389008 379.342834,385.553101 
	C367.643951,387.278381 355.969391,389.205017 344.233124,390.619446 
	C340.537842,391.064758 339.267853,392.327484 339.778015,395.779938 
	C349.780548,397.489166 351.911224,400.127716 349.360046,408.388123 
	C337.662140,446.264893 325.849060,484.106110 314.060608,521.954895 
	C312.552826,526.795898 310.946899,531.606262 309.225769,536.927490 
	C317.264404,536.927490 324.586914,536.667297 331.878815,537.027344 
	C336.096313,537.235535 337.875610,535.777954 339.178131,531.775330 
	C344.896667,514.202209 350.661957,496.628967 357.090240,479.308105 
	C360.755646,469.431763 366.298492,460.392914 374.736908,453.648499 
	C378.274597,450.820984 382.612335,449.185089 386.789673,451.817383 
	C390.916077,454.417633 389.728638,458.809265 388.888702,462.734528 
	C388.507446,464.516327 387.876190,466.252747 387.261292,467.975098 
	C384.294617,476.285095 381.190857,484.547729 378.336456,492.895813 
	C375.538177,501.079926 372.426575,509.215881 370.448547,517.607727 
	C367.444794,530.351196 376.744812,539.949768 389.616821,537.392578 
	C394.514374,536.419617 399.446106,534.092529 403.607330,531.269714 
	C411.323944,526.034912 416.250275,518.259216 420.627319,509.731750 
	C418.934204,508.721832 417.431549,507.825500 415.640839,506.757355 
	C414.510132,508.608673 413.711090,510.260162 412.601532,511.666748 
	C409.729736,515.307312 406.928711,519.049683 403.648132,522.295349 
	C402.583069,523.348999 399.809601,523.675415 398.405457,523.038452 
	C397.456238,522.607910 396.931702,519.775208 397.273712,518.254578 
	C398.109436,514.538574 399.539703,510.954254 400.764038,507.328217 
	C405.925598,492.041626 411.896881,476.971008 416.030273,461.411865 
	C419.701508,447.592468 411.659302,438.075317 396.480255,436.940308 
M736.558044,439.787476 
	C730.552673,436.344025 725.186646,436.437317 720.774048,440.061798 
	C716.539978,443.539673 714.395935,450.183838 716.585144,455.490540 
	C717.804016,458.445190 720.012146,461.187531 722.332275,463.454681 
	C728.871460,469.844452 729.835693,472.214874 726.102966,480.556946 
	C722.095520,489.513031 717.479736,498.200684 713.002808,506.940674 
	C711.692505,509.498688 709.950562,511.835693 708.406494,514.273987 
	C705.154541,501.869995 703.134033,489.785553 700.912354,477.738220 
	C699.162170,468.247894 697.591431,458.692078 695.163757,449.367676 
	C692.362976,438.610107 683.263916,434.332794 672.985901,438.408691 
	C664.650940,441.714081 658.754883,447.815948 654.485413,456.064911 
	C656.109741,456.339966 657.843872,456.414062 658.846497,455.593872 
	C664.881226,450.657074 667.699463,451.337708 670.366211,458.716309 
	C670.987000,460.433990 671.556946,462.198242 671.883667,463.989685 
	C676.187622,487.585022 680.475708,511.183411 684.674988,534.797546 
	C685.253052,538.048401 686.519714,541.865051 685.422424,544.598938 
	C681.863342,553.466492 675.816284,560.587708 666.787964,564.448059 
	C663.077026,566.034790 660.688904,564.793274 659.767151,560.236206 
	C658.114929,552.067627 651.055908,547.355896 643.675781,548.804016 
	C636.801880,550.152771 632.335876,555.210327 632.096680,561.916809 
	C631.841919,569.060120 636.133667,574.857849 643.575623,576.935059 
	C651.113220,579.039001 658.922791,578.731995 665.368591,574.562134 
	C673.383789,569.377014 681.672974,563.792542 687.771484,556.618835 
	C707.622131,533.268250 722.737671,506.747681 736.006409,479.208679 
	C738.805847,473.398682 741.008667,467.163727 742.484497,460.888916 
	C744.259644,453.341583 743.644165,445.891144 736.558044,439.787476 
M1148.758545,817.200500 
	C1150.007446,814.861450 1151.644043,812.646301 1152.437988,810.161804 
	C1155.902954,799.319214 1154.292847,789.310486 1146.033936,781.169067 
	C1138.487183,773.729553 1129.311890,771.817444 1119.346313,775.587463 
	C1109.196899,779.426941 1102.761108,789.716919 1102.859619,801.197205 
	C1102.954224,812.229614 1109.435425,821.678528 1119.552124,825.533325 
	C1130.040039,829.529480 1139.846436,826.883362 1148.758545,817.200500 
z"/>
<path fill="#FBFBFB" opacity="1.000000" stroke="none" 
	d="
M979.106934,643.985596 
	C979.106995,650.904114 979.106995,657.822571 979.106995,665.474365 
	C980.483765,663.732910 981.531433,662.384583 982.603149,661.055542 
	C996.873474,643.357727 1015.173401,635.571777 1037.674805,639.929871 
	C1052.832397,642.865601 1062.560181,652.609131 1067.094360,667.327637 
	C1068.409668,671.597229 1069.088013,676.063049 1070.138672,681.249146 
	C1070.351074,718.216797 1070.473267,754.374390 1070.633545,790.531799 
	C1070.647461,793.684753 1070.914429,796.836609 1071.063965,799.988953 
	C1071.902710,810.223145 1074.321899,812.398010 1088.226685,815.311768 
	C1088.226685,816.893372 1088.226685,818.506592 1088.226685,820.466736 
	C1061.102783,820.466736 1034.217529,820.466736 1007.000000,820.466736 
	C1007.000000,818.778809 1007.000000,817.028503 1007.000000,815.335938 
	C1007.218323,815.177734 1007.341553,815.019470 1007.489746,814.990845 
	C1020.130432,812.549683 1022.826538,810.059204 1022.924011,796.947205 
	C1023.208740,758.627747 1023.053223,720.304504 1022.946350,681.983154 
	C1022.937134,678.693115 1022.296143,675.331482 1021.463440,672.129272 
	C1017.207947,655.764404 999.817261,650.923340 988.328796,663.473877 
	C983.943726,668.264343 981.933777,675.229004 978.689758,681.960022 
	C978.421265,684.039124 978.204712,685.360779 978.202271,686.682861 
	C978.140869,720.165222 978.074280,753.647522 978.095825,787.129883 
	C978.098389,791.096252 978.605347,795.062317 978.878479,799.028564 
	C978.846619,799.196655 978.814819,799.364746 978.798828,800.142761 
	C979.150208,802.185608 979.485840,803.618469 979.821411,805.051331 
	C981.042175,813.639771 987.785889,814.185913 994.702637,814.838013 
	C994.702637,816.726562 994.702637,818.441833 994.702637,820.496094 
	C967.770264,820.496094 940.898804,820.496094 913.891296,820.496094 
	C912.665710,816.950989 912.974365,814.685730 917.431213,814.555237 
	C924.469910,814.349304 928.288330,810.288696 929.978149,802.961548 
	C930.406982,792.773254 930.822388,783.303772 930.830139,773.833862 
	C930.880127,712.780518 930.879944,651.727112 930.757568,590.673950 
	C930.747742,585.770691 929.695374,580.869507 929.127441,575.967346 
	C927.405884,568.142700 921.352295,566.368042 914.324829,565.660217 
	C914.324829,563.807800 914.324829,562.044739 914.324829,559.754272 
	C935.955933,557.076721 957.691895,554.364380 978.849365,547.554443 
	C979.171753,565.045227 979.105408,582.035767 979.084229,599.026306 
	C979.065552,614.012756 979.097412,628.999146 979.106934,643.985596 
z"/>
<path fill="#FBFBFB" opacity="1.000000" stroke="none" 
	d="
M206.876541,799.724487 
	C209.472473,807.762756 214.976501,811.765991 222.718704,812.845825 
	C227.139359,813.462341 231.605408,813.753296 236.288773,814.214233 
	C236.288773,816.314209 236.288773,818.247314 236.288773,820.611206 
	C196.881378,820.611206 157.662079,820.611206 118.434807,820.611206 
	C117.012558,814.705322 117.193336,814.444336 123.048714,813.991699 
	C141.199142,812.588928 146.477737,807.069702 146.498535,788.913025 
	C146.570282,726.257446 146.572433,663.601807 146.540604,600.946167 
	C146.538239,596.290405 146.341278,591.597595 145.738312,586.986938 
	C144.463638,577.240112 139.138550,572.214600 129.372192,571.126343 
	C127.223442,570.886902 125.026802,570.643005 122.888817,570.826782 
	C117.626785,571.279236 116.429512,568.811646 117.853363,563.926880 
	C178.997437,563.926880 240.224991,563.926880 301.739685,563.926880 
	C302.771271,587.268738 303.792267,610.370361 304.811981,633.442749 
	C300.143433,635.902954 298.132690,634.453308 297.056000,629.684570 
	C294.322540,617.577576 289.800934,606.134277 282.903473,595.737488 
	C273.971832,582.274597 261.894775,573.477478 245.532471,571.757263 
	C238.610489,571.029541 231.542572,570.735962 224.613037,571.238586 
	C211.436554,572.194214 205.583557,578.616516 205.258102,591.908630 
	C204.964478,603.900330 205.022888,615.901733 205.002853,627.898926 
	C204.971954,646.395569 205.006683,664.892395 205.013412,683.389099 
	C205.014008,685.015991 205.013504,686.642822 205.013504,687.988342 
	C213.615723,687.988342 221.883774,688.936768 229.845016,687.777710 
	C243.604599,685.774536 252.362823,676.752930 257.024841,664.048096 
	C259.359833,657.684814 260.618195,650.897949 262.008667,644.228699 
	C262.696472,640.929749 263.877838,639.421692 267.551941,640.818115 
	C267.634521,641.907837 267.795074,643.036377 267.794617,644.164795 
	C267.781281,676.158569 267.697876,708.152588 267.792877,740.145996 
	C267.804779,744.153809 266.743805,745.815369 262.895813,744.578613 
	C260.611877,736.445984 258.890320,728.294556 256.030029,720.564514 
	C250.581604,705.839661 239.936020,697.663818 223.872406,697.398926 
	C217.728821,697.297607 211.582153,697.382507 205.294891,697.382507 
	C205.180069,698.410339 205.011719,699.216431 205.011246,700.022644 
	C204.994598,728.684265 204.917755,757.346375 205.070084,786.007141 
	C205.093704,790.453125 206.175934,794.893372 206.876541,799.724487 
z"/>
<path fill="#FAFAFB" opacity="1.000000" stroke="none" 
	d="
M598.084534,660.834900 
	C598.052246,660.500366 597.894775,660.242126 597.229126,659.674988 
	C593.559143,658.505005 590.272095,657.720276 586.985046,656.935547 
	C586.302673,656.748169 585.620300,656.560852 584.605896,655.767456 
	C583.632935,651.243469 585.246826,649.529541 589.243896,649.799194 
	C590.480469,649.882629 591.759399,649.337341 593.018982,649.079895 
	C611.783081,646.487915 630.547119,643.895935 649.654358,641.256531 
	C649.654358,648.493896 649.654358,656.708252 649.654358,666.207458 
	C652.887756,662.499268 655.141296,659.595703 657.717346,657.014038 
	C671.090820,643.611389 687.279968,637.320251 706.154907,639.060425 
	C726.255005,640.913574 739.768799,654.976685 742.715454,676.589661 
	C743.433289,681.854797 743.777649,687.210022 743.793457,692.525269 
	C743.892822,726.022644 743.837891,759.520386 743.882141,793.017944 
	C743.885437,795.503967 744.030762,798.035950 744.511719,800.467041 
	C746.457336,810.300354 749.824585,813.357910 759.738281,814.651062 
	C760.871033,814.798767 761.997742,814.992981 763.311768,815.193848 
	C763.311768,816.940186 763.311768,818.523743 763.311768,820.462708 
	C735.786499,820.462708 708.561523,820.462708 681.127502,820.462708 
	C681.127502,818.614075 681.127502,817.002563 681.127502,815.511047 
	C681.613342,815.217224 681.871826,814.948730 682.167358,814.898499 
	C693.855835,812.913635 696.847534,809.838989 696.975586,797.191223 
	C697.267517,768.362976 697.213379,739.530090 697.124512,710.699646 
	C697.090149,699.548035 697.100525,688.353333 696.146362,677.259399 
	C695.151245,665.688721 689.788696,659.370361 681.020630,657.283325 
	C672.290527,655.205322 663.002747,659.245544 656.848999,667.768127 
	C652.330566,674.025879 649.917603,680.887939 649.938416,688.718384 
	C650.029724,723.049194 649.975708,757.380310 649.979187,791.711365 
	C649.979309,793.210999 649.989624,794.712280 650.057983,796.209961 
	C650.669617,809.608398 653.799622,813.164185 667.083252,815.255554 
	C667.083252,816.910339 667.083252,818.618713 667.083252,820.573608 
	C640.347107,820.573608 613.903870,820.573608 586.633118,820.573608 
	C586.870667,818.699036 587.101318,816.879517 588.042969,814.908081 
	C598.064636,813.441223 600.749695,810.877014 602.140320,801.604980 
	C602.583191,798.651672 602.818420,795.638550 602.822021,792.652405 
	C602.866638,755.338501 602.935059,718.024231 602.775085,680.710938 
	C602.745605,673.837036 603.083862,666.642273 598.084534,660.834900 
z"/>
<path fill="#FAFAFB" opacity="1.000000" stroke="none" 
	d="
M461.989441,656.991333 
	C486.588043,636.444824 513.617493,632.437256 542.402954,645.134705 
	C560.615540,653.168335 570.993286,668.645020 575.749512,687.641724 
	C577.828796,695.946411 578.532654,704.595520 579.986450,713.889648 
	C546.043335,713.889648 513.347778,713.889648 480.025970,713.889648 
	C479.638855,733.249023 480.602295,751.770813 489.119354,768.898254 
	C492.104553,774.901428 496.049042,780.844360 500.863190,785.447083 
	C519.179688,802.959229 550.729492,799.325317 567.171021,778.241699 
	C569.916199,774.721436 572.249878,770.880371 574.948242,766.932129 
	C576.585205,767.728516 578.173828,768.501343 579.723022,769.255005 
	C571.344116,796.881775 547.213745,820.729065 518.082275,823.681763 
	C485.620026,826.972107 457.760162,812.337341 442.217316,783.528503 
	C420.545746,743.359985 429.179871,687.457520 461.989441,656.991333 
M532.805237,706.421143 
	C534.020508,690.678162 532.394653,675.242798 527.525574,660.212646 
	C526.719482,657.724426 525.316589,655.351685 523.821228,653.179016 
	C518.920959,646.059387 512.192200,643.676941 503.808472,645.752625 
	C494.360901,648.091675 489.548798,655.384399 487.493744,663.679443 
	C484.316772,676.502930 482.724976,689.719238 480.215057,703.511963 
	C480.058990,705.385559 479.753662,707.044006 482.731232,707.002686 
	C499.144836,706.775452 515.560730,706.718079 532.805237,706.421143 
z"/>
<path fill="#FBFAFB" opacity="1.000000" stroke="none" 
	d="
M879.508057,705.604980 
	C868.620911,703.743835 861.762451,697.761108 859.620117,687.378723 
	C857.511414,677.159363 860.694763,668.721069 869.741699,662.767639 
	C874.803406,659.436768 874.672607,653.621704 869.235107,649.622742 
	C861.714050,644.091309 853.390503,643.995911 845.061401,647.624512 
	C837.230225,651.036316 831.920166,657.230042 828.205933,664.711670 
	C819.151428,682.950439 816.874817,702.548767 817.439575,722.562927 
	C817.966980,741.252563 821.300232,759.331604 831.184326,775.630737 
	C844.055298,796.855408 869.377319,802.125977 888.294983,787.021851 
	C893.231567,783.080322 896.728943,777.298096 900.716797,772.227234 
	C902.118530,770.444824 903.009827,768.260925 904.236694,766.078003 
	C906.248413,767.123047 907.841675,767.950684 909.862793,769.000610 
	C900.623657,793.217224 887.181702,813.661499 861.072083,821.361694 
	C834.929260,829.071777 811.758606,821.855774 792.994934,802.500488 
	C772.675720,781.540527 766.169128,755.430481 768.296570,726.991760 
	C770.420166,698.604858 780.397644,673.356628 803.413452,655.612671 
	C828.239014,636.473511 856.153442,632.317322 885.213135,645.324097 
	C899.744507,651.828186 907.673889,663.815063 907.149475,680.347778 
	C906.648804,696.130981 895.206543,706.698486 879.508057,705.604980 
z"/>
<path fill="#F9F9FA" opacity="1.000000" stroke="none" 
	d="
M385.700867,813.683472 
	C388.749054,814.064880 391.374573,814.391785 394.305786,814.756714 
	C394.305786,816.678772 394.305786,818.393555 394.305786,820.463379 
	C363.186218,820.463379 332.256134,820.463379 301.046509,820.463379 
	C299.448639,817.004761 299.741821,814.970642 304.511902,814.460693 
	C316.783020,813.149109 320.702545,809.318848 321.071625,796.973633 
	C321.564423,780.490479 321.331085,763.984375 321.329803,747.488098 
	C321.328033,724.990723 321.284515,702.493225 321.169891,679.996216 
	C321.152985,676.679199 320.863892,673.328979 320.325500,670.055786 
	C318.803619,660.803955 314.989838,657.463867 305.675171,656.857605 
	C304.377686,656.773254 303.082184,656.658386 301.377777,656.525879 
	C301.291016,654.562622 301.213470,652.808411 301.152100,651.420105 
	C323.735992,647.774353 345.976807,644.184021 368.698486,640.516052 
	C368.698486,648.108765 368.698486,655.966553 368.698486,665.272217 
	C371.262390,661.275574 372.793243,658.378906 374.795135,655.855957 
	C384.080200,644.154114 395.592438,637.144287 411.152893,640.018616 
	C423.158966,642.236450 431.701752,651.932617 433.754150,664.959167 
	C435.682312,677.197266 430.638550,688.582764 420.673798,693.985107 
	C411.949127,698.715210 403.190063,698.200012 395.164215,692.613220 
	C387.711090,687.425171 385.454590,679.622498 387.066223,670.965942 
	C387.993195,665.987000 389.985291,661.206482 391.627991,655.917969 
	C384.862823,655.505737 380.269379,659.194885 376.717682,664.116394 
	C371.520020,671.318726 368.901855,679.665710 368.853851,688.483276 
	C368.667969,722.644409 368.756409,756.807068 368.766388,790.969116 
	C368.766907,792.798218 368.878021,794.641235 369.116913,796.454163 
	C370.567017,807.460693 374.319641,811.423157 385.700867,813.683472 
z"/>
<path fill="#CE9F5B" opacity="1.000000" stroke="none" 
	d="
M229.665665,541.914673 
	C217.318863,542.531250 205.561401,542.393982 194.365982,537.423523 
	C169.903870,526.562988 157.521561,504.467499 160.165268,476.125641 
	C163.914398,435.933105 193.799713,399.612061 232.510406,388.555847 
	C246.744598,384.490356 261.155884,384.408966 275.443054,388.527374 
	C299.048889,395.332001 314.092438,416.039795 314.250183,441.900757 
	C314.515503,485.408356 279.848145,536.131348 229.665665,541.914673 
M206.640076,440.205109 
	C203.965134,447.725159 200.980927,455.152069 198.681824,462.785309 
	C194.341431,477.195679 191.485260,491.850189 192.878189,507.059784 
	C194.731537,527.296631 209.077988,538.384888 228.250565,533.868713 
	C238.476990,531.459839 245.773697,524.519897 251.843124,516.369629 
	C266.135803,497.176971 274.007996,475.197754 279.205719,452.106415 
	C281.937500,439.970306 282.909241,427.785370 280.411835,415.462097 
	C277.075653,399.000092 265.262787,390.788605 248.712708,393.403290 
	C240.078659,394.767303 233.194275,399.112579 227.429962,405.450806 
	C218.346359,415.438751 212.227127,427.225342 206.640076,440.205109 
z"/>
<path fill="#CE9E5A" opacity="1.000000" stroke="none" 
	d="
M534.180237,455.186310 
	C537.843750,451.576874 541.329956,447.762085 545.213501,444.407379 
	C550.670898,439.693237 557.194763,437.268158 564.415222,436.938354 
	C577.273926,436.350983 585.044556,443.853333 585.136536,457.355347 
	C588.153992,453.980743 590.787537,450.734497 593.732666,447.801025 
	C601.164673,440.398254 610.064331,436.410675 620.712219,437.033203 
	C631.414429,437.658936 638.592834,444.850861 638.065063,455.563110 
	C637.767700,461.598206 636.185852,467.713074 634.283936,473.496429 
	C630.281738,485.666168 625.674683,497.636627 621.346252,509.699768 
	C620.503601,512.048279 619.387695,514.405945 619.150269,516.833008 
	C618.932983,519.054626 619.733337,521.375916 620.085266,523.653259 
	C622.271484,522.776978 624.991333,522.436707 626.527588,520.907410 
	C629.320068,518.127747 631.455139,514.674316 633.770569,511.434845 
	C634.796631,509.999268 635.593750,508.400085 636.668030,506.582092 
	C638.456970,507.761963 639.799988,508.647736 641.556335,509.806122 
	C634.338379,521.816650 627.328735,533.492371 612.685425,537.298279 
	C598.960144,540.865479 588.911316,532.033447 592.020569,518.223145 
	C594.235718,508.384399 598.152954,498.919464 601.455933,489.337830 
	C604.384277,480.843109 607.721130,472.484283 610.463379,463.932587 
	C611.786438,459.806427 613.801025,455.072784 608.979248,451.612122 
	C605.696472,449.256073 600.166809,450.889008 595.583008,455.355286 
	C588.227844,462.522034 584.018921,471.631470 580.536560,481.011047 
	C574.394897,497.553284 568.513000,514.197327 562.875122,530.917664 
	C561.395935,535.304626 559.669678,537.395264 554.623535,537.004700 
	C547.543335,536.456726 540.388977,536.866272 532.583862,536.866272 
	C533.425415,534.488220 534.078613,532.659485 534.720337,530.826721 
	C542.205933,509.447205 549.725769,488.079498 557.130615,466.672028 
	C558.099792,463.870117 558.884338,460.884979 559.040161,457.946808 
	C559.331055,452.460632 556.156860,449.379974 550.941589,451.020172 
	C546.908875,452.288513 542.790527,454.940826 539.973267,458.103027 
	C531.895386,467.169983 526.847290,478.094177 522.974243,489.537903 
	C518.116089,503.892395 513.249634,518.245483 508.591003,532.665100 
	C507.558350,535.861511 506.140869,537.163757 502.623169,537.027161 
	C494.993866,536.730713 487.345093,536.935730 479.114929,536.935730 
	C479.771210,534.903503 480.242523,533.369080 480.760773,531.850708 
	C488.666504,508.688110 496.583282,485.529266 504.479370,462.363373 
	C505.123474,460.473663 505.727783,458.561066 506.192078,456.621155 
	C507.683350,450.390259 506.121552,448.338898 499.760742,447.983612 
	C498.629578,447.920471 497.503632,447.763794 494.693970,447.481171 
	C496.710571,445.165253 497.849762,442.580658 499.297485,442.394409 
	C511.983185,440.762451 524.723938,439.558533 538.137512,438.155640 
	C536.601440,443.548126 535.131042,448.709961 533.471313,454.446289 
	C533.318848,455.268494 533.355652,455.516296 533.392456,455.764069 
	C533.655029,455.571472 533.917664,455.378906 534.180237,455.186310 
z"/>
<path fill="#CF9F5C" opacity="1.000000" stroke="none" 
	d="
M1153.209961,596.333740 
	C1146.812256,648.810059 1140.466431,700.835632 1134.097534,753.050537 
	C1129.807251,753.050537 1126.385864,753.050537 1122.488281,753.050537 
	C1121.002075,740.462830 1119.509277,727.940186 1118.047241,715.414001 
	C1112.487671,667.780762 1107.015747,620.137085 1101.332397,572.518677 
	C1099.847900,560.080017 1101.922119,549.096069 1112.759277,541.527039 
	C1122.413330,534.784302 1132.830444,534.590027 1142.925903,540.436218 
	C1152.802124,546.155396 1156.954468,555.424744 1156.276123,566.563721 
	C1155.679688,576.361694 1154.297363,586.111755 1153.209961,596.333740 
z"/>
<path fill="#CE9D5A" opacity="1.000000" stroke="none" 
	d="
M396.932190,436.944641 
	C411.659302,438.075317 419.701508,447.592468 416.030273,461.411865 
	C411.896881,476.971008 405.925598,492.041626 400.764038,507.328217 
	C399.539703,510.954254 398.109436,514.538574 397.273712,518.254578 
	C396.931702,519.775208 397.456238,522.607910 398.405457,523.038452 
	C399.809601,523.675415 402.583069,523.348999 403.648132,522.295349 
	C406.928711,519.049683 409.729736,515.307312 412.601532,511.666748 
	C413.711090,510.260162 414.510132,508.608673 415.640839,506.757355 
	C417.431549,507.825500 418.934204,508.721832 420.627319,509.731750 
	C416.250275,518.259216 411.323944,526.034912 403.607330,531.269714 
	C399.446106,534.092529 394.514374,536.419617 389.616821,537.392578 
	C376.744812,539.949768 367.444794,530.351196 370.448547,517.607727 
	C372.426575,509.215881 375.538177,501.079926 378.336456,492.895813 
	C381.190857,484.547729 384.294617,476.285095 387.261292,467.975098 
	C387.876190,466.252747 388.507446,464.516327 388.888702,462.734528 
	C389.728638,458.809265 390.916077,454.417633 386.789673,451.817383 
	C382.612335,449.185089 378.274597,450.820984 374.736908,453.648499 
	C366.298492,460.392914 360.755646,469.431763 357.090240,479.308105 
	C350.661957,496.628967 344.896667,514.202209 339.178131,531.775330 
	C337.875610,535.777954 336.096313,537.235535 331.878815,537.027344 
	C324.586914,536.667297 317.264404,536.927490 309.225769,536.927490 
	C310.946899,531.606262 312.552826,526.795898 314.060608,521.954895 
	C325.849060,484.106110 337.662140,446.264893 349.360046,408.388123 
	C351.911224,400.127716 349.780548,397.489166 339.778015,395.779938 
	C339.267853,392.327484 340.537842,391.064758 344.233124,390.619446 
	C355.969391,389.205017 367.643951,387.278381 379.342834,385.553101 
	C380.455444,385.389008 381.571533,385.248535 383.481537,384.989044 
	C376.432129,408.634766 369.568817,431.656219 362.705536,454.677704 
	C372.537384,445.744110 382.210571,437.030243 396.932190,436.944641 
M362.474243,456.754211 
	C362.570923,456.660889 362.735168,456.574341 362.745300,456.472412 
	C362.755493,456.370575 362.611420,456.253387 362.534973,456.142914 
	C362.438232,456.236176 362.341492,456.329437 362.474243,456.754211 
z"/>
<path fill="#CF9E5B" opacity="1.000000" stroke="none" 
	d="
M736.859009,440.004913 
	C743.644165,445.891144 744.259644,453.341583 742.484497,460.888916 
	C741.008667,467.163727 738.805847,473.398682 736.006409,479.208679 
	C722.737671,506.747681 707.622131,533.268250 687.771484,556.618835 
	C681.672974,563.792542 673.383789,569.377014 665.368591,574.562134 
	C658.922791,578.731995 651.113220,579.039001 643.575623,576.935059 
	C636.133667,574.857849 631.841919,569.060120 632.096680,561.916809 
	C632.335876,555.210327 636.801880,550.152771 643.675781,548.804016 
	C651.055908,547.355896 658.114929,552.067627 659.767151,560.236206 
	C660.688904,564.793274 663.077026,566.034790 666.787964,564.448059 
	C675.816284,560.587708 681.863342,553.466492 685.422424,544.598938 
	C686.519714,541.865051 685.253052,538.048401 684.674988,534.797546 
	C680.475708,511.183411 676.187622,487.585022 671.883667,463.989685 
	C671.556946,462.198242 670.987000,460.433990 670.366211,458.716309 
	C667.699463,451.337708 664.881226,450.657074 658.846497,455.593872 
	C657.843872,456.414062 656.109741,456.339966 654.485413,456.064911 
	C658.754883,447.815948 664.650940,441.714081 672.985901,438.408691 
	C683.263916,434.332794 692.362976,438.610107 695.163757,449.367676 
	C697.591431,458.692078 699.162170,468.247894 700.912354,477.738220 
	C703.134033,489.785553 705.154541,501.869995 708.406494,514.273987 
	C709.950562,511.835693 711.692505,509.498688 713.002808,506.940674 
	C717.479736,498.200684 722.095520,489.513031 726.102966,480.556946 
	C729.835693,472.214874 728.871460,469.844452 722.332275,463.454681 
	C720.012146,461.187531 717.804016,458.445190 716.585144,455.490540 
	C714.395935,450.183838 716.539978,443.539673 720.774048,440.061798 
	C725.186646,436.437317 730.552673,436.344025 736.859009,440.004913 
z"/>
<path fill="#CF9F5C" opacity="1.000000" stroke="none" 
	d="
M1148.538940,817.485840 
	C1139.846436,826.883362 1130.040039,829.529480 1119.552124,825.533325 
	C1109.435425,821.678528 1102.954224,812.229614 1102.859619,801.197205 
	C1102.761108,789.716919 1109.196899,779.426941 1119.346313,775.587463 
	C1129.311890,771.817444 1138.487183,773.729553 1146.033936,781.169067 
	C1154.292847,789.310486 1155.902954,799.319214 1152.437988,810.161804 
	C1151.644043,812.646301 1150.007446,814.861450 1148.538940,817.485840 
z"/>
<path fill="#2F344C" opacity="1.000000" stroke="none" 
	d="
M928.865112,576.245117 
	C929.695374,580.869507 930.747742,585.770691 930.757568,590.673950 
	C930.879944,651.727112 930.880127,712.780518 930.830139,773.833862 
	C930.822388,783.303772 930.406982,792.773254 929.985840,802.601868 
	C929.335815,802.309021 928.475891,801.652039 928.484314,801.006348 
	C928.634705,789.384460 929.078369,777.764160 929.091309,766.143127 
	C929.158264,706.029968 929.128418,645.916565 929.097656,585.803284 
	C929.096069,582.709717 928.775085,579.616333 928.865112,576.245117 
z"/>
<path fill="#2F344C" opacity="1.000000" stroke="none" 
	d="
M597.948486,661.202637 
	C603.083862,666.642273 602.745605,673.837036 602.775085,680.710938 
	C602.935059,718.024231 602.866638,755.338501 602.822021,792.652405 
	C602.818420,795.638550 602.583191,798.651672 602.140320,801.604980 
	C600.749695,810.877014 598.064636,813.441223 588.353271,814.715820 
	C588.372070,814.203247 588.709473,813.451538 589.223511,813.300354 
	C598.042419,810.705994 601.032471,807.228394 601.052490,798.147522 
	C601.142639,757.273010 601.160034,716.397827 600.935120,675.524353 
	C600.918213,672.445557 598.621704,669.428040 597.734009,666.283508 
	C597.325256,664.835205 597.760132,663.148804 597.948486,661.202637 
z"/>
<path fill="#2F344C" opacity="1.000000" stroke="none" 
	d="
M979.143921,798.755127 
	C978.605347,795.062317 978.098389,791.096252 978.095825,787.129883 
	C978.074280,753.647522 978.140869,720.165222 978.202271,686.682861 
	C978.204712,685.360779 978.421265,684.039124 978.723206,682.348022 
	C979.239014,683.720276 979.828674,685.457764 979.854980,687.203735 
	C979.962830,694.356567 979.819336,701.513062 979.912537,708.666321 
	C980.223999,732.582886 980.715393,756.497986 980.865112,780.415283 
	C980.902771,786.434143 979.922058,792.459351 979.143921,798.755127 
z"/>
<path fill="#000826" opacity="1.000000" stroke="none" 
	d="
M979.484253,643.867126 
	C979.097412,628.999146 979.065552,614.012756 979.084229,599.026306 
	C979.105408,582.035767 979.171753,565.045227 979.190369,547.630127 
	C979.772217,548.397217 980.911011,549.587280 980.914795,550.780823 
	C981.009705,580.745972 980.996216,610.711426 980.934570,640.676758 
	C980.932434,641.701477 980.234985,642.724731 979.484253,643.867126 
z"/>
<path fill="#000826" opacity="1.000000" stroke="none" 
	d="
M1071.333984,799.674438 
	C1070.914429,796.836609 1070.647461,793.684753 1070.633545,790.531799 
	C1070.473267,754.374390 1070.351074,718.216797 1070.275269,681.601990 
	C1070.886719,682.384949 1071.924194,683.624207 1071.926758,684.865540 
	C1072.003418,722.551880 1071.979736,760.238403 1071.953979,797.924927 
	C1071.953735,798.403320 1071.725830,798.881531 1071.333984,799.674438 
z"/>
<path fill="#2F344C" opacity="1.000000" stroke="none" 
	d="
M592.714417,648.821289 
	C591.759399,649.337341 590.480469,649.882629 589.243896,649.799194 
	C585.246826,649.529541 583.632935,651.243469 584.279724,655.621765 
	C584.070129,653.842712 583.854675,651.603210 583.639160,649.363770 
	C586.562744,649.096741 589.486267,648.829712 592.714417,648.821289 
z"/>
<path fill="#2F344C" opacity="1.000000" stroke="none" 
	d="
M587.242432,657.197998 
	C590.272095,657.720276 593.559143,658.505005 597.006226,659.605896 
	C593.944153,659.101501 590.721985,658.281006 587.242432,657.197998 
z"/>
<path fill="#2F344C" opacity="1.000000" stroke="none" 
	d="
M980.076538,804.799988 
	C979.485840,803.618469 979.150208,802.185608 978.892700,800.381592 
	C979.424377,801.523132 979.877991,803.035889 980.076538,804.799988 
z"/>
<path fill="#0C1E3B" opacity="1.000000" stroke="none" 
	d="
M480.460938,702.768921 
	C482.724976,689.719238 484.316772,676.502930 487.493744,663.679443 
	C489.548798,655.384399 494.360901,648.091675 503.808472,645.752625 
	C512.192200,643.676941 518.920959,646.059387 523.821228,653.179016 
	C525.316589,655.351685 526.719482,657.724426 527.525574,660.212646 
	C532.394653,675.242798 534.020508,690.678162 532.240662,706.160767 
	C529.955078,705.600525 528.235474,705.050354 526.512817,705.040588 
	C513.415649,704.966064 500.316223,705.102051 487.221863,704.895386 
	C484.957581,704.859741 482.714050,703.511108 480.460938,702.768921 
z"/>
<path fill="#000826" opacity="1.000000" stroke="none" 
	d="
M480.338013,703.140442 
	C482.714050,703.511108 484.957581,704.859741 487.221863,704.895386 
	C500.316223,705.102051 513.415649,704.966064 526.512817,705.040588 
	C528.235474,705.050354 529.955078,705.600525 531.825989,706.251465 
	C515.560730,706.718079 499.144836,706.775452 482.731232,707.002686 
	C479.753662,707.044006 480.058990,705.385559 480.338013,703.140442 
z"/>
<path fill="#091B39" opacity="1.000000" stroke="none" 
	d="
M206.777710,439.848938 
	C212.227127,427.225342 218.346359,415.438751 227.429962,405.450806 
	C233.194275,399.112579 240.078659,394.767303 248.712708,393.403290 
	C265.262787,390.788605 277.075653,399.000092 280.411835,415.462097 
	C282.909241,427.785370 281.937500,439.970306 279.205719,452.106415 
	C274.007996,475.197754 266.135803,497.176971 251.843124,516.369629 
	C245.773697,524.519897 238.476990,531.459839 228.250565,533.868713 
	C209.077988,538.384888 194.731537,527.296631 192.878189,507.059784 
	C191.485260,491.850189 194.341431,477.195679 198.681824,462.785309 
	C200.980927,455.152069 203.965134,447.725159 206.777710,439.848938 
z"/>
<path fill="#081C3A" opacity="1.000000" stroke="none" 
	d="
M534.044312,455.049103 
	C533.917664,455.378906 533.655029,455.571472 533.392456,455.764069 
	C533.355652,455.516296 533.318848,455.268494 533.458008,454.830261 
	C533.633972,454.639832 533.908325,454.911896 534.044312,455.049103 
z"/>
<path fill="#081C3A" opacity="1.000000" stroke="none" 
	d="
M362.359497,456.588440 
	C362.341492,456.329437 362.438232,456.236176 362.534973,456.142914 
	C362.611420,456.253387 362.755493,456.370575 362.745300,456.472412 
	C362.735168,456.574341 362.570923,456.660889 362.359497,456.588440 
z"/>
</svg>